<svg xmlns="http://www.w3.org/2000/svg" viewBox="0 -0.5 10 20" shape-rendering="crispEdges">
<metadata>Made with Pixels to Svg https://codepen.io/shshaw/pen/XbxvNj</metadata>
<path stroke="#241327" d="M4 0h2M3 1h1M6 1h1M1 2h3M6 2h3M0 3h1M2 3h1M4 3h2M7 3h1M9 3h1M0 4h1M2 4h1M6 4h1M9 4h1M0 5h1M3 5h1M9 5h1M1 6h1M8 6h1M1 7h1M8 7h1M2 8h2M7 8h1M1 9h1M4 9h1M8 9h1M1 10h1M8 10h1M2 11h2M7 11h1M2 12h1M7 12h1M2 13h1M7 13h1M1 14h1M8 14h1M1 15h1M8 15h1M0 16h1M9 16h1M0 17h1M9 17h1M0 18h1M9 18h1M1 19h2M7 19h2" />
<path stroke="#a8bbc5" d="M4 1h1M5 2h1M6 3h1M4 4h1M8 4h1M4 5h2M7 5h2M4 6h4M5 7h3M4 8h3M2 9h1M5 9h2M3 10h2M7 10h1M5 12h2M5 13h2M4 14h4M4 15h4M1 16h1M4 16h4M2 17h3M8 17h1M6 18h2M6 19h1" />
<path stroke="#d2e7e9" d="M5 1h1M8 3h1M5 4h1M7 9h1M5 10h2M8 16h1M5 17h3" />
<path stroke="#5b5f92" d="M4 2h1M1 3h1M3 3h1M1 4h1M3 4h1M7 4h1M1 5h2M6 5h1M2 6h2M2 7h3M3 9h1M2 10h1M4 11h3M3 12h2M3 13h2M2 14h2M2 15h2M2 16h2M1 17h1M1 18h5M8 18h1M3 19h3" />
</svg>