<svg xmlns="http://www.w3.org/2000/svg" viewBox="0 -0.5 137 120" shape-rendering="crispEdges">
<metadata>Made with Pixels to Svg https://codepen.io/shshaw/pen/XbxvNj</metadata>
<path stroke="#241327" d="M3 0h130M2 1h1M133 1h1M1 2h1M134 2h1M0 3h1M4 3h1M131 3h1M135 3h1M0 4h1M4 4h128M135 4h1M0 5h1M4 5h1M131 5h1M135 5h1M0 6h1M4 6h1M20 6h1M52 6h1M84 6h1M116 6h1M131 6h1M135 6h1M0 7h1M4 7h1M20 7h1M52 7h1M84 7h1M116 7h1M131 7h1M135 7h1M0 8h1M4 8h1M20 8h1M52 8h1M84 8h1M116 8h1M131 8h1M135 8h1M0 9h1M4 9h1M20 9h1M52 9h1M84 9h1M116 9h1M131 9h1M135 9h1M0 10h1M4 10h1M20 10h1M52 10h1M84 10h1M116 10h1M131 10h1M135 10h1M0 11h1M4 11h1M20 11h1M52 11h1M84 11h1M116 11h1M131 11h1M135 11h1M0 12h1M4 12h1M20 12h1M52 12h1M84 12h1M116 12h1M131 12h1M135 12h1M0 13h1M4 13h1M20 13h1M52 13h1M84 13h1M116 13h1M131 13h1M135 13h1M0 14h1M4 14h1M20 14h1M52 14h1M84 14h1M116 14h1M131 14h1M135 14h1M0 15h1M4 15h1M20 15h1M52 15h1M84 15h1M116 15h1M131 15h1M135 15h1M0 16h1M4 16h1M20 16h1M52 16h1M84 16h1M116 16h1M131 16h1M135 16h1M0 17h1M4 17h1M20 17h1M52 17h1M84 17h1M116 17h1M131 17h1M135 17h1M0 18h1M4 18h1M20 18h15M52 18h15M84 18h15M116 18h16M135 18h1M0 19h1M4 19h1M131 19h1M135 19h1M0 20h1M4 20h1M36 20h1M68 20h1M100 20h1M131 20h1M135 20h1M0 21h1M4 21h1M36 21h1M68 21h1M100 21h1M131 21h1M135 21h1M0 22h1M4 22h1M36 22h1M68 22h1M100 22h1M131 22h1M135 22h1M0 23h1M4 23h1M36 23h1M68 23h1M100 23h1M131 23h1M135 23h1M0 24h1M4 24h1M36 24h1M68 24h1M100 24h1M131 24h1M135 24h1M0 25h1M4 25h1M36 25h1M68 25h1M100 25h1M131 25h1M135 25h1M0 26h1M4 26h1M36 26h1M68 26h1M100 26h1M131 26h1M135 26h1M0 27h1M4 27h1M36 27h1M68 27h1M100 27h1M131 27h1M135 27h1M0 28h1M4 28h1M36 28h1M68 28h1M100 28h1M131 28h1M135 28h1M0 29h1M4 29h1M36 29h1M68 29h1M100 29h1M131 29h1M135 29h1M0 30h1M4 30h1M36 30h1M68 30h1M100 30h1M131 30h1M135 30h1M0 31h1M4 31h1M36 31h1M68 31h1M100 31h1M131 31h1M135 31h1M0 32h1M4 32h15M36 32h15M68 32h15M100 32h15M131 32h1M135 32h1M0 33h1M4 33h1M131 33h1M135 33h1M0 34h1M4 34h1M20 34h1M52 34h1M84 34h1M116 34h1M131 34h1M135 34h1M0 35h1M4 35h1M20 35h1M52 35h1M84 35h1M116 35h1M131 35h1M135 35h1M0 36h1M4 36h1M20 36h1M52 36h1M84 36h1M116 36h1M131 36h1M135 36h1M0 37h1M4 37h1M20 37h1M52 37h1M84 37h1M116 37h1M131 37h1M135 37h1M0 38h1M4 38h1M20 38h1M52 38h1M84 38h1M116 38h1M131 38h1M135 38h1M0 39h1M4 39h1M20 39h1M52 39h1M84 39h1M116 39h1M131 39h1M135 39h1M0 40h1M4 40h1M20 40h1M52 40h1M84 40h1M116 40h1M131 40h1M135 40h1M0 41h1M4 41h1M20 41h1M52 41h1M84 41h1M116 41h1M131 41h1M135 41h1M0 42h1M4 42h1M20 42h1M52 42h1M84 42h1M116 42h1M131 42h1M135 42h1M0 43h1M4 43h1M20 43h1M52 43h1M84 43h1M116 43h1M131 43h1M135 43h1M0 44h1M4 44h1M20 44h1M52 44h1M84 44h1M116 44h1M131 44h1M135 44h1M0 45h1M4 45h1M20 45h1M52 45h1M84 45h1M116 45h1M131 45h1M135 45h1M0 46h1M4 46h1M20 46h15M52 46h15M84 46h15M116 46h16M135 46h1M0 47h1M4 47h1M131 47h1M135 47h1M0 48h1M4 48h1M36 48h1M68 48h1M100 48h1M131 48h1M135 48h1M0 49h1M4 49h1M36 49h1M68 49h1M100 49h1M131 49h1M135 49h1M0 50h1M4 50h1M36 50h1M68 50h1M100 50h1M131 50h1M135 50h1M0 51h1M4 51h1M36 51h1M68 51h1M100 51h1M131 51h1M135 51h1M0 52h1M4 52h1M36 52h1M68 52h1M100 52h1M131 52h1M135 52h1M0 53h1M4 53h1M36 53h1M68 53h1M100 53h1M131 53h1M135 53h1M0 54h1M4 54h1M36 54h1M68 54h1M100 54h1M131 54h1M135 54h1M0 55h1M4 55h1M36 55h1M68 55h1M100 55h1M131 55h1M135 55h1M0 56h1M4 56h1M36 56h1M68 56h1M100 56h1M131 56h1M135 56h1M0 57h1M4 57h1M36 57h1M68 57h1M100 57h1M131 57h1M135 57h1M0 58h1M4 58h1M36 58h1M68 58h1M100 58h1M131 58h1M135 58h1M0 59h1M4 59h1M36 59h1M68 59h1M100 59h1M131 59h1M135 59h1M0 60h1M4 60h15M36 60h15M68 60h15M100 60h15M131 60h1M135 60h1M0 61h1M4 61h1M131 61h1M135 61h1M0 62h1M4 62h1M20 62h1M52 62h1M84 62h1M116 62h1M131 62h1M135 62h1M0 63h1M4 63h1M20 63h1M52 63h1M84 63h1M116 63h1M131 63h1M135 63h1M0 64h1M4 64h1M20 64h1M52 64h1M84 64h1M116 64h1M131 64h1M135 64h1M0 65h1M4 65h1M20 65h1M52 65h1M84 65h1M116 65h1M131 65h1M135 65h1M0 66h1M4 66h1M20 66h1M52 66h1M84 66h1M116 66h1M131 66h1M135 66h1M0 67h1M4 67h1M20 67h1M52 67h1M84 67h1M116 67h1M131 67h1M135 67h1M0 68h1M4 68h1M20 68h1M52 68h1M84 68h1M116 68h1M131 68h1M135 68h1M0 69h1M4 69h1M20 69h1M52 69h1M84 69h1M116 69h1M131 69h1M135 69h1M0 70h1M4 70h1M20 70h1M52 70h1M84 70h1M116 70h1M131 70h1M135 70h1M0 71h1M4 71h1M20 71h1M52 71h1M84 71h1M116 71h1M131 71h1M135 71h1M0 72h1M4 72h1M20 72h1M52 72h1M84 72h1M116 72h1M131 72h1M135 72h1M0 73h1M4 73h1M20 73h1M52 73h1M84 73h1M116 73h1M131 73h1M135 73h1M0 74h1M4 74h1M20 74h15M52 74h15M84 74h15M116 74h16M135 74h1M0 75h1M4 75h1M131 75h1M135 75h1M0 76h1M4 76h1M36 76h1M68 76h1M100 76h1M131 76h1M135 76h1M0 77h1M4 77h1M36 77h1M68 77h1M100 77h1M131 77h1M135 77h1M0 78h1M4 78h1M36 78h1M68 78h1M100 78h1M131 78h1M135 78h1M0 79h1M4 79h1M36 79h1M68 79h1M100 79h1M131 79h1M135 79h1M0 80h1M4 80h1M36 80h1M68 80h1M100 80h1M131 80h1M135 80h1M0 81h1M4 81h1M36 81h1M68 81h1M100 81h1M131 81h1M135 81h1M0 82h1M4 82h1M36 82h1M68 82h1M100 82h1M131 82h1M135 82h1M0 83h1M4 83h1M36 83h1M68 83h1M100 83h1M131 83h1M135 83h1M0 84h1M4 84h1M36 84h1M68 84h1M100 84h1M131 84h1M135 84h1M0 85h1M4 85h1M36 85h1M68 85h1M100 85h1M131 85h1M135 85h1M0 86h1M4 86h1M36 86h1M68 86h1M100 86h1M131 86h1M135 86h1M0 87h1M4 87h1M36 87h1M68 87h1M100 87h1M131 87h1M135 87h1M0 88h1M4 88h15M36 88h15M68 88h15M100 88h15M131 88h1M135 88h1M0 89h1M4 89h1M131 89h1M135 89h1M0 90h1M4 90h1M20 90h1M52 90h1M84 90h1M116 90h1M131 90h1M135 90h1M0 91h1M4 91h1M20 91h1M52 91h1M84 91h1M116 91h1M131 91h1M135 91h1M0 92h1M4 92h1M20 92h1M52 92h1M84 92h1M116 92h1M131 92h1M135 92h1M0 93h1M4 93h1M20 93h1M52 93h1M84 93h1M116 93h1M131 93h1M135 93h1M0 94h1M4 94h1M20 94h1M52 94h1M84 94h1M116 94h1M131 94h1M135 94h1M0 95h1M4 95h1M20 95h1M52 95h1M84 95h1M116 95h1M131 95h1M135 95h1M0 96h1M4 96h1M20 96h1M52 96h1M84 96h1M116 96h1M131 96h1M135 96h1M0 97h1M4 97h1M20 97h1M52 97h1M84 97h1M116 97h1M131 97h1M135 97h1M0 98h1M4 98h1M20 98h1M52 98h1M84 98h1M116 98h1M131 98h1M135 98h1M0 99h1M4 99h1M20 99h1M52 99h1M84 99h1M116 99h1M131 99h1M135 99h1M0 100h1M4 100h1M20 100h1M52 100h1M84 100h1M116 100h1M131 100h1M135 100h1M0 101h1M4 101h1M20 101h1M52 101h1M84 101h1M116 101h1M131 101h1M135 101h1M0 102h1M4 102h1M20 102h15M52 102h15M84 102h15M116 102h16M135 102h1M0 103h1M4 103h1M131 103h1M135 103h1M0 104h1M4 104h1M36 104h1M68 104h1M100 104h1M131 104h1M135 104h1M0 105h1M4 105h1M36 105h1M68 105h1M100 105h1M131 105h1M135 105h1M0 106h1M4 106h1M36 106h1M68 106h1M100 106h1M131 106h1M135 106h1M0 107h1M4 107h1M36 107h1M68 107h1M100 107h1M131 107h1M135 107h1M0 108h1M4 108h1M36 108h1M68 108h1M100 108h1M131 108h1M135 108h1M0 109h1M4 109h1M36 109h1M68 109h1M100 109h1M131 109h1M135 109h1M0 110h1M4 110h1M36 110h1M68 110h1M100 110h1M131 110h1M135 110h1M0 111h1M4 111h1M36 111h1M68 111h1M100 111h1M131 111h1M135 111h1M0 112h1M4 112h1M36 112h1M68 112h1M100 112h1M131 112h1M135 112h1M0 113h1M4 113h1M36 113h1M68 113h1M100 113h1M131 113h1M135 113h1M0 114h1M4 114h2M36 114h1M68 114h1M100 114h1M131 114h1M135 114h1M0 115h1M5 115h126M135 115h1M0 116h1M135 116h1M1 117h1M134 117h1M2 118h1M133 118h1M3 119h130" />
<path stroke="#903e4b" d="M3 1h1M132 1h1M133 2h1M1 3h1M5 3h126M1 4h1M1 5h1M132 5h1M1 6h1M132 6h1M1 7h1M132 7h1M1 8h1M132 8h1M1 9h1M132 9h1M1 10h1M132 10h1M1 11h1M132 11h1M1 12h1M132 12h1M1 13h1M132 13h1M1 14h1M132 14h1M1 15h1M132 15h1M1 16h1M132 16h1M1 17h1M132 17h1M1 18h1M132 18h1M1 19h1M132 19h1M1 20h1M132 20h1M1 21h1M132 21h1M1 22h1M132 22h1M1 23h1M132 23h1M1 24h1M132 24h1M1 25h1M132 25h1M1 26h1M132 26h1M1 27h1M132 27h1M1 28h1M132 28h1M1 29h1M132 29h1M1 30h1M132 30h1M1 31h1M132 31h1M1 32h1M132 32h1M1 33h1M132 33h1M1 34h1M132 34h1M1 35h1M132 35h1M1 36h1M132 36h1M1 37h1M132 37h1M1 38h1M132 38h1M1 39h1M132 39h1M1 40h1M132 40h1M1 41h1M132 41h1M1 42h1M132 42h1M1 43h1M132 43h1M1 44h1M132 44h1M1 45h1M132 45h1M1 46h1M132 46h1M1 47h1M132 47h1M1 48h1M132 48h1M1 49h1M132 49h1M1 50h1M132 50h1M1 51h1M132 51h1M1 52h1M132 52h1M1 53h1M132 53h1M1 54h1M132 54h1M1 55h1M132 55h1M1 56h1M132 56h1M1 57h1M132 57h1M1 58h1M132 58h1M1 59h1M132 59h1M1 60h1M132 60h1M1 61h1M132 61h1M1 62h1M132 62h1M1 63h1M132 63h1M1 64h1M132 64h1M1 65h1M132 65h1M1 66h1M132 66h1M1 67h1M132 67h1M1 68h1M132 68h1M1 69h1M132 69h1M1 70h1M132 70h1M1 71h1M132 71h1M1 72h1M132 72h1M1 73h1M132 73h1M1 74h1M132 74h1M1 75h1M132 75h1M1 76h1M132 76h1M1 77h1M132 77h1M1 78h1M132 78h1M1 79h1M132 79h1M1 80h1M132 80h1M1 81h1M132 81h1M1 82h1M132 82h1M1 83h1M132 83h1M1 84h1M132 84h1M1 85h1M132 85h1M1 86h1M132 86h1M1 87h1M132 87h1M1 88h1M132 88h1M1 89h1M132 89h1M1 90h1M132 90h1M1 91h1M132 91h1M1 92h1M132 92h1M1 93h1M132 93h1M1 94h1M132 94h1M1 95h1M132 95h1M1 96h1M132 96h1M1 97h1M132 97h1M1 98h1M132 98h1M1 99h1M132 99h1M1 100h1M132 100h1M1 101h1M132 101h1M1 102h1M132 102h1M1 103h1M132 103h1M1 104h1M132 104h1M1 105h1M132 105h1M1 106h1M132 106h1M1 107h1M132 107h1M1 108h1M132 108h1M1 109h1M132 109h1M1 110h1M132 110h1M1 111h1M132 111h1M1 112h1M132 112h1M1 113h1M132 113h1M1 114h1M132 114h1M1 115h1M1 116h2M2 117h2M3 118h129" />
<path stroke="#be594f" d="M4 1h128M2 2h3M130 2h3M2 3h2M132 3h2M2 4h1M132 4h2M2 5h1M133 5h1M2 6h1M133 6h1M2 7h1M133 7h1M2 8h1M133 8h1M2 9h1M133 9h1M2 10h1M133 10h1M2 11h1M133 11h1M2 12h1M133 12h1M2 13h1M133 13h1M2 14h1M133 14h1M2 15h1M133 15h1M2 16h1M133 16h1M2 17h1M133 17h1M2 18h1M133 18h1M2 19h1M133 19h1M2 20h1M133 20h1M2 21h1M133 21h1M2 22h1M133 22h1M2 23h1M133 23h1M2 24h1M133 24h1M2 25h1M133 25h1M2 26h1M133 26h1M2 27h1M133 27h1M2 28h1M133 28h1M2 29h1M133 29h1M2 30h1M133 30h1M2 31h1M133 31h1M2 32h1M133 32h1M2 33h1M133 33h1M2 34h1M133 34h1M2 35h1M133 35h1M2 36h1M133 36h1M2 37h1M133 37h1M2 38h1M133 38h1M2 39h1M133 39h1M2 40h1M133 40h1M2 41h1M133 41h1M2 42h1M133 42h1M2 43h1M133 43h1M2 44h1M133 44h1M2 45h1M133 45h1M2 46h1M133 46h1M2 47h1M133 47h1M2 48h1M133 48h1M2 49h1M133 49h1M2 50h1M133 50h1M2 51h1M133 51h1M2 52h1M133 52h1M2 53h1M133 53h1M2 54h1M133 54h1M2 55h1M133 55h1M2 56h1M133 56h1M2 57h1M133 57h1M2 58h1M133 58h1M2 59h1M133 59h1M2 60h1M133 60h1M2 61h1M133 61h1M2 62h1M133 62h1M2 63h1M133 63h1M2 64h1M133 64h1M2 65h1M133 65h1M2 66h1M133 66h1M2 67h1M133 67h1M2 68h1M133 68h1M2 69h1M133 69h1M2 70h1M133 70h1M2 71h1M133 71h1M2 72h1M133 72h1M2 73h1M133 73h1M2 74h1M133 74h1M2 75h1M133 75h1M2 76h1M133 76h1M2 77h1M133 77h1M2 78h1M133 78h1M2 79h1M133 79h1M2 80h1M133 80h1M2 81h1M133 81h1M2 82h1M133 82h1M2 83h1M133 83h1M2 84h1M133 84h1M2 85h1M133 85h1M2 86h1M133 86h1M2 87h1M133 87h1M2 88h1M133 88h1M2 89h1M133 89h1M2 90h1M133 90h1M2 91h1M133 91h1M2 92h1M133 92h1M2 93h1M133 93h1M2 94h1M133 94h1M2 95h1M133 95h1M2 96h1M133 96h1M2 97h1M133 97h1M2 98h1M133 98h1M2 99h1M133 99h1M2 100h1M133 100h1M2 101h1M133 101h1M2 102h1M133 102h1M2 103h1M133 103h1M2 104h1M133 104h1M2 105h1M133 105h1M2 106h1M133 106h1M2 107h1M133 107h1M2 108h1M133 108h1M2 109h1M133 109h1M2 110h1M133 110h1M2 111h1M133 111h1M2 112h1M133 112h1M2 113h1M133 113h1M2 114h2M133 114h1M2 115h3M131 115h2M3 116h129" />
<path stroke="#ff9f4c" d="M5 2h125M134 3h1M3 4h1M134 4h1M3 5h1M134 5h1M3 6h1M134 6h1M3 7h1M134 7h1M3 8h1M134 8h1M3 9h1M134 9h1M3 10h1M134 10h1M3 11h1M134 11h1M3 12h1M134 12h1M3 13h1M134 13h1M3 14h1M134 14h1M3 15h1M134 15h1M3 16h1M134 16h1M3 17h1M134 17h1M3 18h1M134 18h1M3 19h1M134 19h1M3 20h1M134 20h1M3 21h1M134 21h1M3 22h1M134 22h1M3 23h1M134 23h1M3 24h1M134 24h1M3 25h1M134 25h1M3 26h1M134 26h1M3 27h1M134 27h1M3 28h1M134 28h1M3 29h1M134 29h1M3 30h1M134 30h1M3 31h1M134 31h1M3 32h1M134 32h1M3 33h1M134 33h1M3 34h1M134 34h1M3 35h1M134 35h1M3 36h1M134 36h1M3 37h1M134 37h1M3 38h1M134 38h1M3 39h1M134 39h1M3 40h1M134 40h1M3 41h1M134 41h1M3 42h1M134 42h1M3 43h1M134 43h1M3 44h1M134 44h1M3 45h1M134 45h1M3 46h1M134 46h1M3 47h1M134 47h1M3 48h1M134 48h1M3 49h1M134 49h1M3 50h1M134 50h1M3 51h1M134 51h1M3 52h1M134 52h1M3 53h1M134 53h1M3 54h1M134 54h1M3 55h1M134 55h1M3 56h1M134 56h1M3 57h1M134 57h1M3 58h1M134 58h1M3 59h1M134 59h1M3 60h1M134 60h1M3 61h1M134 61h1M3 62h1M134 62h1M3 63h1M134 63h1M3 64h1M134 64h1M3 65h1M134 65h1M3 66h1M134 66h1M3 67h1M134 67h1M3 68h1M134 68h1M3 69h1M134 69h1M3 70h1M134 70h1M3 71h1M134 71h1M3 72h1M134 72h1M3 73h1M134 73h1M3 74h1M134 74h1M3 75h1M134 75h1M3 76h1M134 76h1M3 77h1M134 77h1M3 78h1M134 78h1M3 79h1M134 79h1M3 80h1M134 80h1M3 81h1M134 81h1M3 82h1M134 82h1M3 83h1M134 83h1M3 84h1M134 84h1M3 85h1M134 85h1M3 86h1M134 86h1M3 87h1M134 87h1M3 88h1M134 88h1M3 89h1M134 89h1M3 90h1M134 90h1M3 91h1M134 91h1M3 92h1M134 92h1M3 93h1M134 93h1M3 94h1M134 94h1M3 95h1M134 95h1M3 96h1M134 96h1M3 97h1M134 97h1M3 98h1M134 98h1M3 99h1M134 99h1M3 100h1M134 100h1M3 101h1M134 101h1M3 102h1M134 102h1M3 103h1M134 103h1M3 104h1M134 104h1M3 105h1M134 105h1M3 106h1M134 106h1M3 107h1M134 107h1M3 108h1M134 108h1M3 109h1M134 109h1M3 110h1M134 110h1M3 111h1M134 111h1M3 112h1M134 112h1M3 113h1M134 113h1M134 114h1M133 115h2M132 116h3M4 117h130M132 118h1" />
<path stroke="#a8bbc5" d="M5 5h15M36 5h16M68 5h16M100 5h16M5 6h15M37 6h15M69 6h15M101 6h15M5 7h15M37 7h15M69 7h15M101 7h15M5 8h15M37 8h15M69 8h15M101 8h15M5 9h15M37 9h15M69 9h15M101 9h15M5 10h15M37 10h15M69 10h15M101 10h15M5 11h15M37 11h15M69 11h15M101 11h15M5 12h15M37 12h15M69 12h15M101 12h15M5 13h15M37 13h15M69 13h15M101 13h15M5 14h15M37 14h15M69 14h15M101 14h15M5 15h15M37 15h15M69 15h15M101 15h15M5 16h15M37 16h15M69 16h15M101 16h15M5 17h15M37 17h15M69 17h15M101 17h15M19 18h1M51 18h1M83 18h1M115 18h1M20 19h16M52 19h16M84 19h16M116 19h15M21 20h15M53 20h15M85 20h15M117 20h14M21 21h15M53 21h15M85 21h15M117 21h14M21 22h15M53 22h15M85 22h15M117 22h14M21 23h15M53 23h15M85 23h15M117 23h14M21 24h15M53 24h15M85 24h15M117 24h14M21 25h15M53 25h15M85 25h15M117 25h14M21 26h15M53 26h15M85 26h15M117 26h14M21 27h15M53 27h15M85 27h15M117 27h14M21 28h15M53 28h15M85 28h15M117 28h14M21 29h15M53 29h15M85 29h15M117 29h14M21 30h15M53 30h15M85 30h15M117 30h14M21 31h15M53 31h15M85 31h15M117 31h14M35 32h1M67 32h1M99 32h1M5 33h15M36 33h16M68 33h16M100 33h16M5 34h15M37 34h15M69 34h15M101 34h15M5 35h15M37 35h15M69 35h15M101 35h15M5 36h15M37 36h15M69 36h15M101 36h15M5 37h15M37 37h15M69 37h15M101 37h15M5 38h15M37 38h15M69 38h15M101 38h15M5 39h15M37 39h15M69 39h15M101 39h15M5 40h15M37 40h15M69 40h15M101 40h15M5 41h15M37 41h15M69 41h15M101 41h15M5 42h15M37 42h15M69 42h15M101 42h15M5 43h15M37 43h15M69 43h15M101 43h15M5 44h15M37 44h15M69 44h15M101 44h15M5 45h15M37 45h15M69 45h15M101 45h15M19 46h1M51 46h1M83 46h1M115 46h1M20 47h16M52 47h16M84 47h16M116 47h15M21 48h15M53 48h15M85 48h15M117 48h14M21 49h15M53 49h15M85 49h15M117 49h14M21 50h15M53 50h15M85 50h15M117 50h14M21 51h15M53 51h15M85 51h15M117 51h14M21 52h15M53 52h15M85 52h15M117 52h14M21 53h15M53 53h15M85 53h15M117 53h14M21 54h15M53 54h15M85 54h15M117 54h14M21 55h15M53 55h15M85 55h15M117 55h14M21 56h15M53 56h15M85 56h15M117 56h14M21 57h15M53 57h15M85 57h15M117 57h14M21 58h15M53 58h15M85 58h15M117 58h14M21 59h15M53 59h15M85 59h15M117 59h14M35 60h1M67 60h1M99 60h1M5 61h15M36 61h16M68 61h16M100 61h16M5 62h15M37 62h15M69 62h15M101 62h15M5 63h15M37 63h15M69 63h15M101 63h15M5 64h15M37 64h15M69 64h15M101 64h15M5 65h15M37 65h15M69 65h15M101 65h15M5 66h15M37 66h15M69 66h15M101 66h15M5 67h15M37 67h15M69 67h15M101 67h15M5 68h15M37 68h15M69 68h15M101 68h15M5 69h15M37 69h15M69 69h15M101 69h15M5 70h15M37 70h15M69 70h15M101 70h15M5 71h15M37 71h15M69 71h15M101 71h15M5 72h15M37 72h15M69 72h15M101 72h15M5 73h15M37 73h15M69 73h15M101 73h15M19 74h1M51 74h1M83 74h1M115 74h1M20 75h16M52 75h16M84 75h16M116 75h15M21 76h15M53 76h15M85 76h15M117 76h14M21 77h15M53 77h15M85 77h15M117 77h14M21 78h15M53 78h15M85 78h15M117 78h14M21 79h15M53 79h15M85 79h15M117 79h14M21 80h15M53 80h15M85 80h15M117 80h14M21 81h15M53 81h15M85 81h15M117 81h14M21 82h15M53 82h15M85 82h15M117 82h14M21 83h15M53 83h15M85 83h15M117 83h14M21 84h15M53 84h15M85 84h15M117 84h14M21 85h15M53 85h15M85 85h15M117 85h14M21 86h15M53 86h15M85 86h15M117 86h14M21 87h15M53 87h15M85 87h15M117 87h14M35 88h1M67 88h1M99 88h1M5 89h15M36 89h16M68 89h16M100 89h16M5 90h15M37 90h15M69 90h15M101 90h15M5 91h15M37 91h15M69 91h15M101 91h15M5 92h15M37 92h15M69 92h15M101 92h15M5 93h15M37 93h15M69 93h15M101 93h15M5 94h15M37 94h15M69 94h15M101 94h15M5 95h15M37 95h15M69 95h15M101 95h15M5 96h15M37 96h15M69 96h15M101 96h15M5 97h15M37 97h15M69 97h15M101 97h15M5 98h15M37 98h15M69 98h15M101 98h15M5 99h15M37 99h15M69 99h15M101 99h15M5 100h15M37 100h15M69 100h15M101 100h15M5 101h15M37 101h15M69 101h15M101 101h15M19 102h1M51 102h1M83 102h1M115 102h1M20 103h16M53 103h15M85 103h15M116 103h15M21 104h15M53 104h15M85 104h15M117 104h14M21 105h15M53 105h15M85 105h15M117 105h14M21 106h15M53 106h15M85 106h15M117 106h14M21 107h15M53 107h15M85 107h15M117 107h14M21 108h15M53 108h15M85 108h15M117 108h14M21 109h15M53 109h15M85 109h15M117 109h14M21 110h15M53 110h15M85 110h15M117 110h14M21 111h15M53 111h15M85 111h15M117 111h14M21 112h15M53 112h15M85 112h15M117 112h14M21 113h15M53 113h15M85 113h15M117 113h14M21 114h15M53 114h15M85 114h15M117 114h14" />
<path stroke="#4c1d30" d="M20 5h16M52 5h16M84 5h16M116 5h15M21 6h15M53 6h15M85 6h15M117 6h14M21 7h15M53 7h15M85 7h15M117 7h14M21 8h15M53 8h15M85 8h15M117 8h14M21 9h15M53 9h15M85 9h15M117 9h14M21 10h15M53 10h15M85 10h15M117 10h14M21 11h15M53 11h15M85 11h15M117 11h14M21 12h15M53 12h15M85 12h15M117 12h14M21 13h15M53 13h15M85 13h15M117 13h14M21 14h15M53 14h15M85 14h15M117 14h14M21 15h15M53 15h15M85 15h15M117 15h14M21 16h15M53 16h15M85 16h15M117 16h14M21 17h15M53 17h15M85 17h15M117 17h14M35 18h1M67 18h1M99 18h1M5 19h15M36 19h16M68 19h16M100 19h16M5 20h15M37 20h15M69 20h15M101 20h15M5 21h15M37 21h15M69 21h15M101 21h15M5 22h15M37 22h15M69 22h15M101 22h15M5 23h15M37 23h15M69 23h15M101 23h15M5 24h15M37 24h15M69 24h15M101 24h15M5 25h15M37 25h15M69 25h15M101 25h15M5 26h15M37 26h15M69 26h15M101 26h15M5 27h15M37 27h15M69 27h15M101 27h15M5 28h15M37 28h15M69 28h15M101 28h15M5 29h15M37 29h15M69 29h15M101 29h15M5 30h15M37 30h15M69 30h15M101 30h15M5 31h15M37 31h15M69 31h15M101 31h15M19 32h1M51 32h1M83 32h1M115 32h1M20 33h16M52 33h16M84 33h16M116 33h15M21 34h15M53 34h15M85 34h15M117 34h14M21 35h15M53 35h15M85 35h15M117 35h14M21 36h15M53 36h15M85 36h15M117 36h14M21 37h15M53 37h15M85 37h15M117 37h14M21 38h15M53 38h15M85 38h15M117 38h14M21 39h15M53 39h15M85 39h15M117 39h14M21 40h15M53 40h15M85 40h15M117 40h14M21 41h15M53 41h15M85 41h15M117 41h14M21 42h15M53 42h15M85 42h15M117 42h14M21 43h15M53 43h15M85 43h15M117 43h14M21 44h15M53 44h15M85 44h15M117 44h14M21 45h15M53 45h15M85 45h15M117 45h14M35 46h1M67 46h1M99 46h1M5 47h15M36 47h16M68 47h16M100 47h16M5 48h15M37 48h15M69 48h15M101 48h15M5 49h15M37 49h15M69 49h15M101 49h15M5 50h15M37 50h15M69 50h15M101 50h15M5 51h15M37 51h15M69 51h15M101 51h15M5 52h15M37 52h15M69 52h15M101 52h15M5 53h15M37 53h15M69 53h15M101 53h15M5 54h15M37 54h15M69 54h15M101 54h15M5 55h15M37 55h15M69 55h15M101 55h15M5 56h15M37 56h15M69 56h15M101 56h15M5 57h15M37 57h15M69 57h15M101 57h15M5 58h15M37 58h15M69 58h15M101 58h15M5 59h15M37 59h15M69 59h15M101 59h15M19 60h1M51 60h1M83 60h1M115 60h1M20 61h16M52 61h16M84 61h16M116 61h15M21 62h15M53 62h15M85 62h15M117 62h14M21 63h15M53 63h15M85 63h15M117 63h14M21 64h15M53 64h15M85 64h15M117 64h14M21 65h15M53 65h15M85 65h15M117 65h14M21 66h15M53 66h15M85 66h15M117 66h14M21 67h15M53 67h15M85 67h15M117 67h14M21 68h15M53 68h15M85 68h15M117 68h14M21 69h15M53 69h15M85 69h15M117 69h14M21 70h15M53 70h15M85 70h15M117 70h14M21 71h15M53 71h15M85 71h15M117 71h14M21 72h15M53 72h15M85 72h15M117 72h14M21 73h15M53 73h15M85 73h15M117 73h14M35 74h1M67 74h1M99 74h1M5 75h15M36 75h16M68 75h16M100 75h16M5 76h15M37 76h15M69 76h15M101 76h15M5 77h15M37 77h15M69 77h15M101 77h15M5 78h15M37 78h15M69 78h15M101 78h15M5 79h15M37 79h15M69 79h15M101 79h15M5 80h15M37 80h15M69 80h15M101 80h15M5 81h15M37 81h15M69 81h15M101 81h15M5 82h15M37 82h15M69 82h15M101 82h15M5 83h15M37 83h15M69 83h15M101 83h15M5 84h15M37 84h15M69 84h15M101 84h15M5 85h15M37 85h15M69 85h15M101 85h15M5 86h15M37 86h15M69 86h15M101 86h15M5 87h15M37 87h15M69 87h15M101 87h15M19 88h1M51 88h1M83 88h1M115 88h1M20 89h16M52 89h16M84 89h16M116 89h15M21 90h15M53 90h15M85 90h15M117 90h14M21 91h15M53 91h15M85 91h15M117 91h14M21 92h15M53 92h15M85 92h15M117 92h14M21 93h15M53 93h15M85 93h15M117 93h14M21 94h15M53 94h15M85 94h15M117 94h14M21 95h15M53 95h15M85 95h15M117 95h14M21 96h15M53 96h15M85 96h15M117 96h14M21 97h15M53 97h15M85 97h15M117 97h14M21 98h15M53 98h15M85 98h15M117 98h14M21 99h15M53 99h15M85 99h15M117 99h14M21 100h15M53 100h15M85 100h15M117 100h14M21 101h15M53 101h15M85 101h15M117 101h14M35 102h1M67 102h1M99 102h1M5 103h15M36 103h16M68 103h16M100 103h16M5 104h15M37 104h15M69 104h15M101 104h15M5 105h15M37 105h15M69 105h15M101 105h15M5 106h15M37 106h15M69 106h15M101 106h15M5 107h15M37 107h15M69 107h15M101 107h15M5 108h15M37 108h15M69 108h15M101 108h15M5 109h15M37 109h15M69 109h15M101 109h15M5 110h15M37 110h15M69 110h15M101 110h15M5 111h15M37 111h15M69 111h15M101 111h15M5 112h15M37 112h15M69 112h15M101 112h15M5 113h15M37 113h15M69 113h15M101 113h15M6 114h14M37 114h15M69 114h15M101 114h15" />
<path stroke="#5b5f92" d="M36 6h1M68 6h1M100 6h1M36 7h1M68 7h1M100 7h1M36 8h1M68 8h1M100 8h1M36 9h1M68 9h1M100 9h1M36 10h1M68 10h1M100 10h1M36 11h1M68 11h1M100 11h1M36 12h1M68 12h1M100 12h1M36 13h1M68 13h1M100 13h1M36 14h1M68 14h1M100 14h1M36 15h1M68 15h1M100 15h1M36 16h1M68 16h1M100 16h1M36 17h1M68 17h1M100 17h1M5 18h14M36 18h15M68 18h15M100 18h15M20 20h1M52 20h1M84 20h1M116 20h1M20 21h1M52 21h1M84 21h1M116 21h1M20 22h1M52 22h1M84 22h1M116 22h1M20 23h1M52 23h1M84 23h1M116 23h1M20 24h1M52 24h1M84 24h1M116 24h1M20 25h1M52 25h1M84 25h1M116 25h1M20 26h1M52 26h1M84 26h1M116 26h1M20 27h1M52 27h1M84 27h1M116 27h1M20 28h1M52 28h1M84 28h1M116 28h1M20 29h1M52 29h1M84 29h1M116 29h1M20 30h1M52 30h1M84 30h1M116 30h1M20 31h1M52 31h1M84 31h1M116 31h1M20 32h15M52 32h15M84 32h15M116 32h15M36 34h1M68 34h1M100 34h1M36 35h1M68 35h1M100 35h1M36 36h1M68 36h1M100 36h1M36 37h1M68 37h1M100 37h1M36 38h1M68 38h1M100 38h1M36 39h1M68 39h1M100 39h1M36 40h1M68 40h1M100 40h1M36 41h1M68 41h1M100 41h1M36 42h1M68 42h1M100 42h1M36 43h1M68 43h1M100 43h1M36 44h1M68 44h1M100 44h1M36 45h1M68 45h1M100 45h1M5 46h14M36 46h15M68 46h15M100 46h15M20 48h1M52 48h1M84 48h1M116 48h1M20 49h1M52 49h1M84 49h1M116 49h1M20 50h1M52 50h1M84 50h1M116 50h1M20 51h1M52 51h1M84 51h1M116 51h1M20 52h1M52 52h1M84 52h1M116 52h1M20 53h1M52 53h1M84 53h1M116 53h1M20 54h1M52 54h1M84 54h1M116 54h1M20 55h1M52 55h1M84 55h1M116 55h1M20 56h1M52 56h1M84 56h1M116 56h1M20 57h1M52 57h1M84 57h1M116 57h1M20 58h1M52 58h1M84 58h1M116 58h1M20 59h1M52 59h1M84 59h1M116 59h1M20 60h15M52 60h15M84 60h15M116 60h15M36 62h1M68 62h1M100 62h1M36 63h1M68 63h1M100 63h1M36 64h1M68 64h1M100 64h1M36 65h1M68 65h1M100 65h1M36 66h1M68 66h1M100 66h1M36 67h1M68 67h1M100 67h1M36 68h1M68 68h1M100 68h1M36 69h1M68 69h1M100 69h1M36 70h1M68 70h1M100 70h1M36 71h1M68 71h1M100 71h1M36 72h1M68 72h1M100 72h1M36 73h1M68 73h1M100 73h1M5 74h14M36 74h15M68 74h15M100 74h15M20 76h1M52 76h1M84 76h1M116 76h1M20 77h1M52 77h1M84 77h1M116 77h1M20 78h1M52 78h1M84 78h1M116 78h1M20 79h1M52 79h1M84 79h1M116 79h1M20 80h1M52 80h1M84 80h1M116 80h1M20 81h1M52 81h1M84 81h1M116 81h1M20 82h1M52 82h1M84 82h1M116 82h1M20 83h1M52 83h1M84 83h1M116 83h1M20 84h1M52 84h1M84 84h1M116 84h1M20 85h1M52 85h1M84 85h1M116 85h1M20 86h1M52 86h1M84 86h1M116 86h1M20 87h1M52 87h1M84 87h1M116 87h1M20 88h15M52 88h15M84 88h15M116 88h15M36 90h1M68 90h1M100 90h1M36 91h1M68 91h1M100 91h1M36 92h1M68 92h1M100 92h1M36 93h1M68 93h1M100 93h1M36 94h1M68 94h1M100 94h1M36 95h1M68 95h1M100 95h1M36 96h1M68 96h1M100 96h1M36 97h1M68 97h1M100 97h1M36 98h1M68 98h1M100 98h1M36 99h1M68 99h1M100 99h1M36 100h1M68 100h1M100 100h1M36 101h1M68 101h1M100 101h1M5 102h14M36 102h15M68 102h15M100 102h15M52 103h1M84 103h1M20 104h1M52 104h1M84 104h1M116 104h1M20 105h1M52 105h1M84 105h1M116 105h1M20 106h1M52 106h1M84 106h1M116 106h1M20 107h1M52 107h1M84 107h1M116 107h1M20 108h1M52 108h1M84 108h1M116 108h1M20 109h1M52 109h1M84 109h1M116 109h1M20 110h1M52 110h1M84 110h1M116 110h1M20 111h1M52 111h1M84 111h1M116 111h1M20 112h1M52 112h1M84 112h1M116 112h1M20 113h1M52 113h1M84 113h1M116 113h1M20 114h1M52 114h1M84 114h1M116 114h1" />
</svg>